<svg id="a119336a-46f9-490e-9801-8c205bd85f5d" data-name="Warstwa 1" xmlns="http://www.w3.org/2000/svg" viewBox="0 0 841.89 595.28">
  <g>
    <polygon points="195.8 282.12 183.1 282.12 183.1 258.6 171.25 258.6 171.22 258.6 162.81 258.6 162.81 267.04 171.22 267.04 171.22 275.48 162.88 275.48 162.81 275.48 154.44 275.48 154.44 283.92 162.81 283.92 162.88 283.92 171.22 283.92 171.22 292.33 162.81 292.33 162.81 300.77 166.76 300.77 166.76 309.15 162.88 309.15 162.81 309.15 154.44 309.15 154.44 317.59 162.81 317.59 162.88 317.59 171.22 317.59 171.25 317.59 183.1 317.59 183.1 294.07 195.8 294.07 215.46 317.59 228.07 317.59 228.07 313.82 206.45 288.1 228.07 262.37 228.07 258.6 215.46 258.6 195.8 282.12" style="fill: #fff"/>
    <polygon points="137.87 283.92 146 283.92 146 275.48 137.87 275.48 137.56 275.48 129.43 275.48 129.43 283.92 137.56 283.92 137.87 283.92" style="fill: #fff"/>
    <rect x="145.72" y="258.6" width="8.44" height="8.44" style="fill: #fff"/>
    <polygon points="145.72 292.33 137.56 292.33 137.56 300.77 145.72 300.77 146 300.77 154.16 300.77 154.16 292.33 146 292.33 145.72 292.33" style="fill: #fff"/>
    <rect x="138.6" y="309.15" width="8.44" height="8.44" style="fill: #fff"/>
    <path d="M353.42,260.2a11.44,11.44,0,0,0-5.9-1.6h-47.1v59h47.1a11.44,11.44,0,0,0,5.9-1.6,12.41,12.41,0,0,0,4.34-4.3,11.19,11.19,0,0,0,1.64-5.9V270.4a11.19,11.19,0,0,0-1.64-5.9A12.41,12.41,0,0,0,353.42,260.2Zm-6,45a.43.43,0,0,1-.16.32.45.45,0,0,1-.33.17H312.62a.62.62,0,0,1-.49-.49V271a.62.62,0,0,1,.49-.49H347a.48.48,0,0,1,.33.17.47.47,0,0,1,.16.32Z" style="fill: #fff"/>
    <path d="M415.43,305.22a.43.43,0,0,1-.16.32.45.45,0,0,1-.33.17H380.7a.45.45,0,0,1-.33-.17.43.43,0,0,1-.16-.32V258.6h-11.8v47.19a11.34,11.34,0,0,0,1.6,5.9,12.05,12.05,0,0,0,4.3,4.3,11.44,11.44,0,0,0,5.9,1.6h35.38a11.24,11.24,0,0,0,5.86-1.6,12.46,12.46,0,0,0,4.3-4.3,11.19,11.19,0,0,0,1.64-5.9V258.6h-12Z" style="fill: #fff"/>
    <path d="M483.16,305.22a.47.47,0,0,1-.16.32.46.46,0,0,1-.33.17H448.43a.45.45,0,0,1-.33-.17.43.43,0,0,1-.16-.32v-6.56h-11.8v7.13a11.34,11.34,0,0,0,1.6,5.9A12.05,12.05,0,0,0,442,316a11.44,11.44,0,0,0,5.9,1.6h35.38a11.22,11.22,0,0,0,5.86-1.6,12.55,12.55,0,0,0,4.3-4.3,11.19,11.19,0,0,0,1.64-5.9V258.6h-12Z" style="fill: #fff"/>
    <path d="M245.56,305.71a.45.45,0,0,1-.33-.17.43.43,0,0,1-.16-.32V279l-11.45-11.45a11.11,11.11,0,0,0-.35,2.84v35.39a11.44,11.44,0,0,0,1.6,5.9,12.05,12.05,0,0,0,4.3,4.3,11.34,11.34,0,0,0,5.9,1.6h35.39a11.05,11.05,0,0,0,2.84-.35l-11.54-11.53Z" style="fill: #fff"/>
    <path d="M286.32,260.2a11.24,11.24,0,0,0-5.86-1.6H245.07a11.75,11.75,0,0,0-3,.39l11.49,11.49H279.8a.48.48,0,0,1,.33.17.45.45,0,0,1,.16.32v26.29l11.55,11.56a11.25,11.25,0,0,0,.4-3V270.4a11.17,11.17,0,0,0-1.62-5.9A12.73,12.73,0,0,0,286.32,260.2Z" style="fill: #fff"/>
    <path d="M602,260.2a11.18,11.18,0,0,0-5.85-1.6H560.62a11.46,11.46,0,0,0-5.9,1.6,11.73,11.73,0,0,0-5.81,10.2v11.88a11.65,11.65,0,0,0,1.55,5.94,11.91,11.91,0,0,0,4.26,4.26,11.46,11.46,0,0,0,5.9,1.6h34.82a.56.56,0,0,1,.33.12.35.35,0,0,1,.16.29v10.73a.43.43,0,0,1-.16.32.45.45,0,0,1-.33.17H561.11a.32.32,0,0,1-.28-.17.52.52,0,0,1-.13-.32v-4.43H548.91v5a11.73,11.73,0,0,0,5.81,10.2,11.37,11.37,0,0,0,5.9,1.6H596.1A11.09,11.09,0,0,0,602,316a12.38,12.38,0,0,0,4.3-4.3,11.1,11.1,0,0,0,1.64-5.9V293.91a11.07,11.07,0,0,0-1.64-5.94,12.61,12.61,0,0,0-4.3-4.26,11.17,11.17,0,0,0-5.85-1.59h-35a.45.45,0,0,1-.41-.41V271a.55.55,0,0,1,.13-.32.35.35,0,0,1,.28-.17h34.33a.48.48,0,0,1,.33.17.45.45,0,0,1,.16.32v4.43h12v-5a11.1,11.1,0,0,0-1.64-5.9A12.46,12.46,0,0,0,602,260.2Z" style="fill: #fff"/>
    <polygon points="672.96 270.48 672.96 258.6 618.56 258.6 618.56 317.59 672.96 317.59 672.96 305.71 630.52 305.71 630.52 294.08 664.69 294.08 664.69 282.12 630.52 282.12 630.52 270.48 672.96 270.48" style="fill: #fff"/>
    <rect x="512.94" y="279.1" width="18" height="18" style="fill: #fff"/>
  </g>
</svg>
